<?xml version="1.0" encoding="UTF-8"?>
<svg width="507px" height="181px" viewBox="0 0 507 181" version="1.1" xmlns="http://www.w3.org/2000/svg" xmlns:xlink="http://www.w3.org/1999/xlink">
    <!-- Generator: Sketch 49.3 (51167) - http://www.bohemiancoding.com/sketch -->
    <title>LP logo vector</title>
    <desc>Created with Sketch.</desc>
    <defs>
        <polygon id="path-1" points="0.06 0.405 323.763929 0.405 323.763929 180.94 0.06 180.94"></polygon>
        <polygon id="path-3" points="0.115700104 0.315 76.3693042 0.315 76.3693042 52.94 0.115700104 52.94"></polygon>
        <polygon id="path-5" points="0.998355825 0.315 211.944 0.315 211.944 52.94 0.998355825 52.94"></polygon>
    </defs>
    <g id="Page-1" stroke="none" stroke-width="1" fill="none" fill-rule="evenodd">
        <g id="LP-logo-vector">
            <g id="Group-7">
                <mask id="mask-2" fill="white">
                    <use xlink:href="#path-1"></use>
                </mask>
                <g id="Clip-2"></g>
                <path d="M233.422,88.235 L236.225,78.472 L197.909,78.472 C196.487,78.472 195.786,77.309 196.157,76.016 L217.854,0.455 C212.871,0.947 207.878,5.066 206.452,10.032 L181.343,97.476 C179.822,102.771 182.911,107.103 188.205,107.103 L228.004,107.103 L233.422,88.235" id="Fill-1" fill="#1A3A58" mask="url(#mask-2)"></path>
                <path d="M316.513,0.405 L238.175,0.405 L221.217,59.46 L226.057,59.46 L226.051,59.48 L261.845,59.48 L258.222,72.099 L296.988,48.941 L271.522,25.782 L267.538,39.654 L247.372,39.654 L252.112,23.146 C252.483,21.852 253.852,20.688 255.276,20.688 L286.447,20.688 C302.357,20.688 311.706,33.623 307.212,49.273 C302.607,65.311 285.792,78.374 270.012,78.374 L256.43,78.374 L253.599,88.235 L253.609,88.235 L248.191,107.103 L285.876,107.103 C291.171,107.103 296.747,102.771 298.267,97.476 L323.376,10.032 C324.897,4.737 321.808,0.405 316.513,0.405" id="Fill-3" fill="#DD672E" mask="url(#mask-2)"></path>
                <path d="M13.965,130.437 C14.176,129.705 14.95,129.046 15.755,129.046 L24.463,129.046 C25.195,129.046 25.664,129.705 25.454,130.437 L14.234,169.512 L31.65,169.512 C32.454,169.512 32.851,170.171 32.64,170.902 L30.35,178.879 C30.14,179.611 29.366,180.268 28.561,180.268 L1.047,180.268 C0.242,180.268 -0.155,179.611 0.056,178.879 L13.965,130.437" id="Fill-4" fill="#1A3A58" mask="url(#mask-2)"></path>
                <path d="M49.927,130.437 C50.136,129.705 50.911,129.046 51.716,129.046 L82.01,129.046 C82.816,129.046 83.212,129.705 83.001,130.437 L80.711,138.413 C80.501,139.144 79.727,139.803 78.922,139.803 L58.652,139.803 L56.047,148.877 L72.731,148.877 C73.463,148.877 73.932,149.536 73.721,150.267 L71.431,158.243 C71.2,159.048 70.374,159.633 69.642,159.633 L52.958,159.633 L50.121,169.512 L70.391,169.512 C71.196,169.512 71.592,170.171 71.382,170.902 L69.092,178.879 C68.882,179.611 68.108,180.268 67.303,180.268 L37.007,180.268 C36.203,180.268 35.806,179.611 36.016,178.879 L49.927,130.437" id="Fill-5" fill="#1A3A58" mask="url(#mask-2)"></path>
                <path d="M89.309,129.632 C89.519,128.9 90.346,128.315 91.077,128.315 L92.907,128.315 L114.036,156.414 L114.109,156.414 L121.568,130.437 C121.778,129.705 122.552,129.046 123.358,129.046 L132.138,129.046 C132.87,129.046 133.34,129.705 133.13,130.437 L118.989,179.683 C118.779,180.416 117.952,181.001 117.22,181.001 L116.05,181.001 C115.83,181.001 115.307,180.781 115.204,180.634 L94.64,151.585 L94.567,151.585 L86.73,178.879 C86.52,179.611 85.746,180.268 84.941,180.268 L76.233,180.268 C75.501,180.268 75.032,179.611 75.241,178.879 L89.309,129.632" id="Fill-6" fill="#1A3A58" mask="url(#mask-2)"></path>
            </g>
            <path d="M147.076,169.439 C155.345,169.439 163.217,162.926 165.612,154.585 C167.986,146.316 163.855,139.803 155.586,139.803 L148.561,139.803 L140.051,169.439 L147.076,169.439 Z M139.836,130.437 C140.046,129.705 140.82,129.046 141.552,129.046 L159.406,129.046 C173.53,129.046 181.793,140.535 177.759,154.585 C173.682,168.78 158.822,180.268 144.698,180.268 L126.844,180.268 C126.112,180.268 125.716,179.611 125.926,178.879 L139.836,130.437 Z" id="Fill-8" fill="#1A3A58"></path>
            <g id="Group-12" transform="translate(177.000000, 128.000000)">
                <mask id="mask-4" fill="white">
                    <use xlink:href="#path-3"></use>
                </mask>
                <g id="Clip-10"></g>
                <path d="M14.076,2.437 C14.286,1.705 15.134,1.046 15.866,1.046 L24.646,1.046 C25.378,1.046 25.848,1.705 25.637,2.437 L11.728,50.879 C11.518,51.611 10.67,52.268 9.938,52.268 L1.158,52.268 C0.426,52.268 -0.044,51.611 0.166,50.879 L14.076,2.437" id="Fill-9" fill="#1A3A58" mask="url(#mask-4)"></path>
                <path d="M32.499,1.632 C32.709,0.9 33.535,0.315 34.267,0.315 L36.096,0.315 L57.226,28.414 L57.299,28.414 L64.758,2.437 C64.967,1.705 65.742,1.046 66.548,1.046 L75.328,1.046 C76.059,1.046 76.529,1.705 76.319,2.437 L62.178,51.683 C61.968,52.416 61.141,53.001 60.41,53.001 L59.239,53.001 C59.02,53.001 58.497,52.781 58.393,52.634 L37.83,23.585 L37.758,23.585 L29.92,50.879 C29.71,51.611 28.935,52.268 28.13,52.268 L19.423,52.268 C18.691,52.268 18.221,51.611 18.431,50.879 L32.499,1.632" id="Fill-11" fill="#1A3A58" mask="url(#mask-4)"></path>
            </g>
            <path d="M286.562,128.387 C292.709,128.387 298.706,130.948 302.442,135.265 C302.953,135.778 302.775,136.656 302.02,137.242 L294.474,143.389 C293.742,143.9 292.938,143.9 292.478,143.462 C290.433,140.901 287.487,139.949 283.901,139.949 C275.925,139.949 267.552,146.681 265.241,154.73 C262.95,162.707 267.572,169.293 275.549,169.293 C277.67,169.293 279.949,169.001 282.397,168.122 L283.616,163.878 L279.006,163.878 C278.201,163.878 277.783,163.293 277.993,162.56 L280.073,155.316 C280.304,154.511 281.059,153.925 281.863,153.925 L296.572,153.925 C297.303,153.925 297.699,154.585 297.489,155.316 L291.91,175.001 C291.805,175.366 291.345,175.951 290.988,176.172 C290.988,176.172 282.086,180.927 271.475,180.927 C256.914,180.927 248.526,169.366 252.728,154.73 C256.93,140.095 272.001,128.387 286.562,128.387" id="Fill-13" fill="#1A3A58"></path>
            <g id="Group-20" transform="translate(295.000000, 128.000000)">
                <mask id="mask-6" fill="white">
                    <use xlink:href="#path-5"></use>
                </mask>
                <g id="Clip-15"></g>
                <path d="M27.426,22.999 C30.573,22.999 33.922,20.51 34.867,17.218 C35.75,14.145 33.787,11.803 30.641,11.803 L23.689,11.803 L20.475,22.999 L27.426,22.999 Z M14.964,2.437 C15.174,1.705 15.948,1.046 16.754,1.046 L34.389,1.046 C43.39,1.046 48.679,8.364 46.137,17.218 C43.531,26.292 34.019,33.682 25.091,33.682 L17.407,33.682 L12.469,50.879 C12.259,51.611 11.412,52.268 10.68,52.268 L2.046,52.268 C1.24,52.268 0.844,51.611 1.054,50.879 L14.964,2.437 Z" id="Fill-14" fill="#DD672E" mask="url(#mask-6)"></path>
                <path d="M69.126,41.293 C77.176,41.293 85.652,34.707 87.943,26.73 C90.253,18.681 85.58,12.023 77.53,12.023 C69.555,12.023 61.057,18.681 58.746,26.73 C56.455,34.707 61.151,41.293 69.126,41.293 Z M80.893,0.315 C95.528,0.315 103.853,12.095 99.651,26.73 C95.448,41.366 80.4,53.001 65.764,53.001 C51.13,53.001 42.835,41.366 47.038,26.73 C51.24,12.095 66.258,0.315 80.893,0.315 Z" id="Fill-16" fill="#DD672E" mask="url(#mask-6)"></path>
                <path d="M111.825,2.437 C112.035,1.705 112.884,1.046 113.615,1.046 L122.396,1.046 C123.127,1.046 123.597,1.705 123.387,2.437 L109.478,50.879 C109.267,51.611 108.419,52.268 107.688,52.268 L98.907,52.268 C98.176,52.268 97.705,51.611 97.916,50.879 L111.825,2.437" id="Fill-17" fill="#DD672E" mask="url(#mask-6)"></path>
                <path d="M129.135,1.632 C129.345,0.9 130.171,0.315 130.903,0.315 L132.733,0.315 L153.861,28.414 L153.935,28.414 L161.394,2.437 C161.604,1.705 162.378,1.046 163.184,1.046 L171.964,1.046 C172.696,1.046 173.165,1.705 172.955,2.437 L158.815,51.683 C158.604,52.416 157.778,53.001 157.045,53.001 L155.875,53.001 C155.655,53.001 155.133,52.781 155.03,52.634 L134.466,23.585 L134.393,23.585 L126.556,50.879 C126.346,51.611 125.571,52.268 124.766,52.268 L116.059,52.268 C115.326,52.268 114.857,51.611 115.067,50.879 L129.135,1.632" id="Fill-18" fill="#DD672E" mask="url(#mask-6)"></path>
                <path d="M185.783,11.803 L175.319,11.803 C174.514,11.803 174.117,11.144 174.328,10.413 L176.618,2.437 C176.828,1.705 177.603,1.046 178.407,1.046 L210.898,1.046 C211.702,1.046 212.099,1.705 211.889,2.437 L209.599,10.413 C209.389,11.144 208.613,11.803 207.809,11.803 L197.345,11.803 L186.124,50.879 C185.914,51.611 185.067,52.268 184.335,52.268 L175.554,52.268 C174.822,52.268 174.353,51.611 174.563,50.879 L185.783,11.803" id="Fill-19" fill="#DD672E" mask="url(#mask-6)"></path>
            </g>
            <polyline id="Fill-21" fill="#1A3A58" points="492.029 179.887 492.029 174.904 490.249 174.904 490.249 173.889 495.016 173.889 495.016 174.904 493.24 174.904 493.24 179.887 492.029 179.887"></polyline>
            <polyline id="Fill-22" fill="#1A3A58" points="495.78 179.887 495.78 173.889 497.593 173.889 498.681 177.982 499.758 173.889 501.573 173.889 501.573 179.887 500.448 179.887 500.448 175.167 499.258 179.887 498.092 179.887 496.905 175.167 496.905 179.887 495.78 179.887"></polyline>
        </g>
    </g>
</svg>